<svg width="392" height="844" viewBox="0 0 392 844" fill="none" xmlns="http://www.w3.org/2000/svg">
<rect width="390" height="844" fill="white"/>
<rect x="13" y="546" width="3" height="154" fill="#04D432"/>
<rect x="6" y="572" width="17" height="94" fill="#04D532"/>
<rect x="41" y="585" width="3" height="121" fill="#E70A0A"/>
<rect x="34" y="605.429" width="17" height="73.8571" fill="#E70A0A"/>
<rect x="69" y="618" width="3" height="101" fill="#E70A0A"/>
<rect x="62" y="635.052" width="17" height="61.6493" fill="#E70A0A"/>
<rect x="98" y="596" width="3" height="101" fill="#04D432"/>
<rect x="91" y="613.052" width="17" height="61.6493" fill="#04D432"/>
<rect x="326" y="238" width="3" height="95" fill="#E70A0A"/>
<rect x="326" y="238" width="3" height="95" fill="#E70A0A"/>
<rect x="326" y="238" width="3" height="95" fill="#E70A0A"/>
<rect x="326" y="238" width="3" height="95" fill="#E70A0A"/>
<rect x="326" y="238" width="3" height="95" fill="#E70A0A"/>
<rect x="326" y="238" width="3" height="95" fill="#E70A0A"/>
<rect x="318" y="253.716" width="17" height="53.5028" fill="#E70A0A"/>
<rect x="318" y="253.716" width="17" height="53.5028" fill="#E70A0A"/>
<rect x="318" y="253.716" width="17" height="53.5028" fill="#E70A0A"/>
<rect x="318" y="253.716" width="17" height="53.5028" fill="#E70A0A"/>
<rect x="318" y="253.716" width="17" height="53.5028" fill="#E70A0A"/>
<rect x="318" y="253.716" width="17" height="53.5028" fill="#E70A0A"/>
<rect x="354" y="260" width="3" height="98" fill="#E70A0A"/>
<rect x="354" y="260" width="3" height="98" fill="#E70A0A"/>
<rect x="354" y="260" width="3" height="98" fill="#E70A0A"/>
<rect x="354" y="260" width="3" height="98" fill="#E70A0A"/>
<rect x="354" y="260" width="3" height="98" fill="#E70A0A"/>
<rect x="354" y="260" width="3" height="98" fill="#E70A0A"/>
<rect x="347" y="276.213" width="17" height="55.1924" fill="#E70A0A"/>
<rect x="347" y="276.213" width="17" height="55.1924" fill="#E70A0A"/>
<rect x="347" y="276.213" width="17" height="55.1924" fill="#E70A0A"/>
<rect x="347" y="276.213" width="17" height="55.1924" fill="#E70A0A"/>
<rect x="347" y="276.213" width="17" height="55.1924" fill="#E70A0A"/>
<rect x="347" y="276.213" width="17" height="55.1924" fill="#E70A0A"/>
<rect x="238" y="400" width="3" height="49" fill="#E70A0A"/>
<rect x="238" y="400" width="3" height="49" fill="#E70A0A"/>
<rect x="238" y="400" width="3" height="49" fill="#E70A0A"/>
<rect x="238" y="400" width="3" height="49" fill="#E70A0A"/>
<rect x="238" y="400" width="3" height="49" fill="#E70A0A"/>
<rect x="238" y="400" width="3" height="49" fill="#E70A0A"/>
<rect x="231" y="421" width="17" height="17" fill="#E70A0A"/>
<rect x="231" y="421" width="17" height="17" fill="#E70A0A"/>
<rect x="231" y="421" width="17" height="17" fill="#E70A0A"/>
<rect x="231" y="421" width="17" height="17" fill="#E70A0A"/>
<rect x="231" y="421" width="17" height="17" fill="#E70A0A"/>
<rect x="231" y="421" width="17" height="17" fill="#E70A0A"/>
<rect x="210" y="378" width="3" height="124" fill="#E70A0A"/>
<rect x="210" y="378" width="3" height="124" fill="#E70A0A"/>
<rect x="210" y="378" width="3" height="124" fill="#E70A0A"/>
<rect x="210" y="378" width="3" height="124" fill="#E70A0A"/>
<rect x="210" y="378" width="3" height="124" fill="#E70A0A"/>
<rect x="210" y="378" width="3" height="124" fill="#E70A0A"/>
<rect x="203" y="400.003" width="17" height="74.904" fill="#E70A0A"/>
<rect x="203" y="400.003" width="17" height="74.904" fill="#E70A0A"/>
<rect x="203" y="400.003" width="17" height="74.904" fill="#E70A0A"/>
<rect x="203" y="400.003" width="17" height="74.904" fill="#E70A0A"/>
<rect x="203" y="400.003" width="17" height="74.904" fill="#E70A0A"/>
<rect x="203" y="400.003" width="17" height="74.904" fill="#E70A0A"/>
<rect x="297" y="193" width="3" height="146" fill="#04D432"/>
<rect x="290" y="207.295" width="17" height="109.94" fill="#04D432"/>
<rect x="382" y="225" width="3" height="71" fill="#04D432"/>
<rect x="375" y="237.599" width="17" height="42.8886" fill="#04D432"/>
<rect x="266" y="269" width="3" height="155" fill="#04D432"/>
<rect x="259" y="307.295" width="17" height="109.94" fill="#04D432"/>
<rect x="182" y="339" width="3" height="158" fill="#04D432"/>
<rect x="175" y="367.036" width="17" height="95.4422" fill="#04D432"/>
<rect x="154" y="449" width="3" height="126" fill="#04D432"/>
<rect x="147" y="471.358" width="17" height="76.1121" fill="#04D432"/>
<rect x="126" y="512" width="3" height="158" fill="#04D432"/>
<rect x="119" y="540.036" width="17" height="95.4422" fill="#04D432"/>
</svg>
