<svg width="25" height="26" viewBox="0 0 25 26" fill="none" xmlns="http://www.w3.org/2000/svg">
<g clip-path="url(#clip0_4_50)">
<path d="M24.9867 13.0309C24.9867 11.9827 24.9017 11.2179 24.7176 10.4247H12.7489V15.1554H19.7743C19.6327 16.3311 18.8678 18.1016 17.1681 19.2913L17.1443 19.4497L20.9285 22.3813L21.1907 22.4075C23.5986 20.1837 24.9867 16.9118 24.9867 13.0309Z" fill="#4285F4"/>
<path d="M12.7489 25.4952C16.1908 25.4952 19.0802 24.362 21.1907 22.4074L17.1681 19.2913C16.0917 20.042 14.6469 20.5661 12.7489 20.5661C9.3779 20.5661 6.51677 18.3424 5.49686 15.2688L5.34736 15.2815L1.41242 18.3268L1.36096 18.4698C3.45723 22.634 7.76313 25.4952 12.7489 25.4952Z" fill="#34A853"/>
<path d="M5.49694 15.2688C5.22783 14.4756 5.07209 13.6257 5.07209 12.7476C5.07209 11.8694 5.22783 11.0196 5.48279 10.2264L5.47566 10.0575L1.49142 6.9633L1.36106 7.0253C0.49709 8.75333 0.00134277 10.6938 0.00134277 12.7476C0.00134277 14.8014 0.49709 16.7418 1.36106 18.4698L5.49694 15.2688Z" fill="#FBBC05"/>
<path d="M12.7489 4.92903C15.1426 4.92903 16.7573 5.963 17.678 6.82706L21.2756 3.31437C19.0661 1.2606 16.1907 0 12.7489 0C7.76311 0 3.45722 2.8611 1.36096 7.02528L5.48269 10.2264C6.51676 7.15281 9.37788 4.92903 12.7489 4.92903Z" fill="#EB4335"/>
</g>
<defs>
<clipPath id="clip0_4_50">
<rect width="25" height="25.5831" fill="white"/>
</clipPath>
</defs>
</svg>
